<svg width="69" height="70" viewBox="0 0 69 70" fill="none" xmlns="http://www.w3.org/2000/svg">
<g filter="url(#filter0_d)">
<path d="M15.6282 61.9365C14.9654 61.9297 14.3153 61.7535 13.7397 61.4246C13.1642 61.0958 12.6823 60.6252 12.34 60.0575C9.17984 55.0896 8.76703 51.2888 8.29728 46.8903C8.16917 45.6803 8.02682 44.4419 7.82753 43.1038C6.0746 40.43 4.99072 37.3736 4.66739 34.1928C4.31152 30.4633 4.31152 28.0149 4.31152 27.9152C4.31152 20.0149 10.2332 13.595 17.5072 13.595C17.7828 13.595 18.0471 13.7044 18.242 13.8993C18.4369 14.0942 18.5464 14.3585 18.5464 14.6341C18.5464 14.9097 18.4369 15.174 18.242 15.3689C18.0471 15.5638 17.7828 15.6732 17.5072 15.6732C11.372 15.6732 6.3898 21.1679 6.3898 27.9152C6.3898 27.9152 6.38981 30.3778 6.73144 33.9935C6.99477 36.8963 7.97287 39.6889 9.57841 42.1216C9.6653 42.2434 9.71924 42.3856 9.73499 42.5344C9.96275 43.9579 10.1051 45.3814 10.2474 46.634C10.703 50.9045 11.0731 54.3493 13.977 58.9187C14.1709 59.2687 14.4779 59.5424 14.8477 59.695C15.2176 59.8476 15.6283 59.87 16.0126 59.7585C16.4519 59.6091 16.8295 59.3188 17.0869 58.9327C17.3443 58.5466 17.467 58.0863 17.436 57.6233V52.3422C17.3597 51.3526 17.4887 50.3578 17.8149 49.4204C18.1412 48.483 18.6577 47.6231 19.332 46.8947C20.0064 46.1663 20.8239 45.5852 21.7335 45.1878C22.643 44.7903 23.6249 44.5852 24.6175 44.5852C25.6101 44.5852 26.592 44.7903 27.5015 45.1878C28.4111 45.5852 29.2287 46.1663 29.903 46.8947C30.5773 47.6231 31.0938 48.483 31.4201 49.4204C31.7464 50.3578 31.8754 51.3526 31.799 52.3422V57.6233C31.768 58.0863 31.8907 58.5466 32.1481 58.9327C32.4055 59.3188 32.7832 59.6091 33.2225 59.7585C33.6068 59.8673 34.0166 59.8437 34.3858 59.6913C34.755 59.539 35.0623 59.2668 35.258 58.9187C36.7144 56.6893 37.7426 54.2081 38.2901 51.602C38.345 51.3322 38.5047 51.0951 38.7343 50.943C38.9638 50.7908 39.2444 50.736 39.5143 50.7906C39.7852 50.8488 40.0224 51.0114 40.1742 51.2432C40.3261 51.475 40.3805 51.7574 40.3257 52.029C39.7292 54.8817 38.5991 57.596 36.9947 60.029C36.5617 60.7578 35.8991 61.3222 35.1108 61.6339C34.3226 61.9457 33.4531 61.9869 32.6388 61.7514C31.771 61.4686 31.0166 60.9151 30.4863 60.1722C29.956 59.4293 29.6777 58.536 29.6922 57.6233V52.3422C29.768 51.6258 29.6922 50.9015 29.4699 50.2162C29.2476 49.531 28.8837 48.9001 28.4018 48.3646C27.9199 47.8291 27.3308 47.4009 26.6727 47.1078C26.0147 46.8147 25.3023 46.6633 24.5819 46.6633C23.8615 46.6633 23.1492 46.8147 22.4911 47.1078C21.833 47.4009 21.2439 47.8291 20.7621 48.3646C20.2802 48.9001 19.9163 49.531 19.694 50.2162C19.4716 50.9015 19.3959 51.6258 19.4716 52.3422V57.6233C19.4861 58.536 19.2078 59.4293 18.6775 60.1722C18.1472 60.9151 17.3929 61.4686 16.525 61.7514C16.2338 61.8461 15.9331 61.9081 15.6282 61.9365Z" fill="#38BCEA"/>
<path d="M63.0588 44.627C62.8795 44.6259 62.7033 44.5797 62.5466 44.4926C62.3899 44.4056 62.2576 44.2804 62.162 44.1288L37.8346 3.45983C37.6411 3.14897 37.3352 2.92464 36.9805 2.83349C36.8038 2.78435 36.6187 2.77289 36.4372 2.79987C36.2558 2.82684 36.082 2.89163 35.9271 2.99005C35.7696 3.08164 35.6326 3.20478 35.5249 3.35175C35.4171 3.49871 35.3408 3.66635 35.3008 3.84415C35.2526 4.02101 35.2416 4.20597 35.2685 4.3873C35.2955 4.56863 35.3598 4.74239 35.4574 4.89756L56.6388 40.2996C56.7626 40.5346 56.7917 40.8081 56.7201 41.0638C56.6486 41.3196 56.4818 41.5382 56.2541 41.6749C56.0263 41.8115 55.7549 41.8558 55.4956 41.7985C55.2362 41.7413 55.0086 41.587 54.8595 41.3672L33.6638 5.95092C33.1944 5.16362 33.0567 4.2222 33.2809 3.33341C33.5051 2.44463 34.0728 1.68114 34.8595 1.2107C35.2486 0.973532 35.6808 0.815928 36.1312 0.746963C36.5816 0.677999 37.0412 0.699068 37.4834 0.808954C37.9256 0.91884 38.3416 1.11534 38.7073 1.38711C39.073 1.65888 39.3812 2.00052 39.614 2.39222L63.9413 43.0612C64.0131 43.1775 64.0609 43.3071 64.0819 43.4422C64.1028 43.5773 64.0965 43.7152 64.0634 43.8479C64.0302 43.9805 63.9708 44.1052 63.8888 44.2146C63.8067 44.3239 63.7036 44.4158 63.5855 44.4846C63.4254 44.5775 63.2438 44.6266 63.0588 44.627Z" fill="#38BCEA"/>
<path d="M39.8276 48.6696C39.6656 48.6708 39.5058 48.6326 39.3619 48.5582C39.2181 48.4838 39.0945 48.3754 39.002 48.2425C38.8918 48.0983 38.8219 47.9274 38.7994 47.7474C38.7768 47.5673 38.8026 47.3845 38.8739 47.2176C41.977 39.9151 34.0625 34.6055 33.7208 34.4062C33.5828 34.319 33.468 34.1996 33.3862 34.0583C33.3044 33.917 33.258 33.758 33.2511 33.5948C33.2438 33.4303 33.2747 33.2662 33.3414 33.1156C33.4081 32.965 33.5087 32.8318 33.6354 32.7265C35.7564 31.0326 35.7991 29.4525 35.5714 28.5557C27.9273 31.5593 20.9807 24.6412 20.6817 24.2853C20.5488 24.157 20.4531 23.9952 20.4046 23.8169C20.3561 23.6387 20.3567 23.4507 20.4063 23.2728C20.4559 23.0948 20.5526 22.9336 20.6863 22.8061C20.82 22.6786 20.9856 22.5897 21.1657 22.5486C25.849 21.3671 27.7137 20.1571 28.4539 19.4027C23.3152 18.4632 20.2974 11.3601 20.1693 11.0327C20.089 10.8452 20.0664 10.6381 20.1044 10.4378C20.1425 10.2374 20.2394 10.053 20.3828 9.90809C20.5189 9.76061 20.6969 9.65834 20.8929 9.61508C21.0888 9.57182 21.2933 9.58961 21.4789 9.66608C21.7493 9.75149 28.155 12.0006 35.2155 6.6483C35.4339 6.49508 35.7023 6.43047 35.9665 6.46745C36.2307 6.50444 36.471 6.64031 36.639 6.84761C36.7956 7.06484 36.8623 7.33415 36.8251 7.59936C36.788 7.86457 36.6499 8.10522 36.4397 8.27109C34.57 9.77597 32.4173 10.8903 30.1091 11.548C27.8008 12.2057 25.3841 12.3936 23.002 12.1003C24.2831 14.3067 26.7315 17.6091 29.8347 17.3814C30.0661 17.3676 30.2955 17.4315 30.4864 17.5631C30.6773 17.6946 30.8187 17.8862 30.8881 18.1074C30.962 18.4134 30.9736 18.7311 30.9222 19.0416C30.8709 19.3522 30.7576 19.6493 30.5892 19.9152C29.7066 21.4952 27.3436 22.8618 23.5429 24.0006C25.8774 25.7799 30.76 28.6127 35.5856 26.1785C35.8059 26.0621 36.0614 26.0311 36.3031 26.0915C36.5448 26.152 36.7557 26.2995 36.8952 26.5059C37.5578 27.5913 37.8168 28.8754 37.6267 30.1327C37.4367 31.39 36.8098 32.5402 35.8561 33.3813C38.0625 35.2034 42.8596 39.9721 41.3365 46.1927C44.3258 45.4525 50.5322 43.2034 52.7243 37.0254C52.8176 36.7674 53.0092 36.5568 53.2572 36.4394C53.5052 36.3221 53.7895 36.3076 54.0482 36.3991C54.3073 36.4954 54.5181 36.6896 54.6353 36.9399C54.7524 37.1903 54.7665 37.4766 54.6745 37.7372C51.2866 47.1749 40.34 48.5272 39.8703 48.5841L39.8276 48.6696Z" fill="#38BCEA"/>
<path d="M12.4114 25.8228C12.2756 25.8228 12.1412 25.7958 12.0159 25.7434C11.8906 25.691 11.777 25.6142 11.6816 25.5176C11.5863 25.4209 11.5111 25.3062 11.4604 25.1802C11.4097 25.0542 11.3846 24.9194 11.3865 24.7837V23.6164C11.3694 23.4707 11.3833 23.323 11.4273 23.1831C11.4713 23.0431 11.5445 22.9141 11.642 22.8044C11.7395 22.6948 11.8591 22.6071 11.9929 22.547C12.1268 22.4869 12.2718 22.4558 12.4185 22.4558C12.5652 22.4558 12.7103 22.4869 12.8441 22.547C12.978 22.6071 13.0976 22.6948 13.1951 22.8044C13.2926 22.9141 13.3657 23.0431 13.4097 23.1831C13.4538 23.323 13.4677 23.4707 13.4506 23.6164V24.7837C13.4525 24.9206 13.4269 25.0566 13.3754 25.1835C13.3238 25.3105 13.2473 25.4258 13.1505 25.5227C13.0536 25.6196 12.9383 25.696 12.8113 25.7476C12.6844 25.7991 12.5484 25.8247 12.4114 25.8228Z" fill="#38BCEA"/>
<path d="M12.4114 31.7017C12.2756 31.7017 12.1412 31.6747 12.0159 31.6223C11.8906 31.5699 11.777 31.4931 11.6816 31.3965C11.5863 31.2998 11.5111 31.1851 11.4604 31.0591C11.4097 30.9331 11.3846 30.7983 11.3865 30.6625V29.4953C11.3694 29.3496 11.3833 29.2019 11.4273 29.062C11.4713 28.922 11.5445 28.793 11.642 28.6833C11.7395 28.5737 11.8591 28.4859 11.9929 28.4259C12.1268 28.3658 12.2718 28.3347 12.4185 28.3347C12.5652 28.3347 12.7103 28.3658 12.8441 28.4259C12.978 28.4859 13.0976 28.5737 13.1951 28.6833C13.2926 28.793 13.3657 28.922 13.4097 29.062C13.4538 29.2019 13.4677 29.3496 13.4506 29.4953V30.6625C13.4525 30.7995 13.4269 30.9355 13.3754 31.0624C13.3238 31.1894 13.2473 31.3047 13.1505 31.4016C13.0536 31.4985 12.9383 31.5749 12.8113 31.6265C12.6844 31.678 12.5484 31.7036 12.4114 31.7017Z" fill="#38BCEA"/>
<path d="M15.9411 28.1715H14.7738C14.6281 28.1886 14.4805 28.1747 14.3405 28.1307C14.2006 28.0867 14.0715 28.0135 13.9619 27.916C13.8523 27.8185 13.7645 27.6989 13.7044 27.5651C13.6444 27.4312 13.6133 27.2862 13.6133 27.1395C13.6133 26.9928 13.6444 26.8477 13.7044 26.7139C13.7645 26.5801 13.8523 26.4604 13.9619 26.3629C14.0715 26.2654 14.2006 26.1923 14.3405 26.1483C14.4805 26.1042 14.6281 26.0903 14.7738 26.1075H15.9411C16.0868 26.0903 16.2345 26.1042 16.3744 26.1483C16.5144 26.1923 16.6434 26.2654 16.753 26.3629C16.8627 26.4604 16.9504 26.5801 17.0105 26.7139C17.0706 26.8477 17.1017 26.9928 17.1017 27.1395C17.1017 27.2862 17.0706 27.4312 17.0105 27.5651C16.9504 27.6989 16.8627 27.8185 16.753 27.916C16.6434 28.0135 16.5144 28.0867 16.3744 28.1307C16.2345 28.1747 16.0868 28.1886 15.9411 28.1715Z" fill="#38BCEA"/>
<path d="M10.0627 28.1715H8.89542C8.74971 28.1886 8.60204 28.1747 8.46209 28.1307C8.32215 28.0867 8.19311 28.0135 8.08348 27.916C7.97385 27.8185 7.88609 27.6989 7.826 27.5651C7.76592 27.4312 7.73486 27.2862 7.73486 27.1395C7.73486 26.9928 7.76592 26.8477 7.826 26.7139C7.88609 26.5801 7.97385 26.4604 8.08348 26.3629C8.19311 26.2654 8.32215 26.1923 8.46209 26.1483C8.60204 26.1042 8.74971 26.0903 8.89542 26.1075H10.0627C10.2084 26.0903 10.356 26.1042 10.496 26.1483C10.6359 26.1923 10.765 26.2654 10.8746 26.3629C10.9842 26.4604 11.072 26.5801 11.1321 26.7139C11.1922 26.8477 11.2232 26.9928 11.2232 27.1395C11.2232 27.2862 11.1922 27.4312 11.1321 27.5651C11.072 27.6989 10.9842 27.8185 10.8746 27.916C10.765 28.0135 10.6359 28.0867 10.496 28.1307C10.356 28.1747 10.2084 28.1886 10.0627 28.1715Z" fill="#38BCEA"/>
</g>
<defs>
<filter id="filter0_d" x="0.311523" y="0.707275" width="67.7824" height="69.2292" filterUnits="userSpaceOnUse" color-interpolation-filters="sRGB">
<feFlood flood-opacity="0" result="BackgroundImageFix"/>
<feColorMatrix in="SourceAlpha" type="matrix" values="0 0 0 0 0 0 0 0 0 0 0 0 0 0 0 0 0 0 127 0" result="hardAlpha"/>
<feOffset dy="4"/>
<feGaussianBlur stdDeviation="2"/>
<feComposite in2="hardAlpha" operator="out"/>
<feColorMatrix type="matrix" values="0 0 0 0 0 0 0 0 0 0 0 0 0 0 0 0 0 0 0.25 0"/>
<feBlend mode="normal" in2="BackgroundImageFix" result="effect1_dropShadow"/>
<feBlend mode="normal" in="SourceGraphic" in2="effect1_dropShadow" result="shape"/>
</filter>
</defs>
</svg>
